<svg xmlns="http://www.w3.org/2000/svg" xmlns:xlink="http://www.w3.org/1999/xlink" version="1.1" id="Layer_1" x="0px" y="0px" width="300px" height="300px" viewBox="0 0 300 300" enable-background="new 0 0 300 300" xml:space="preserve">
<g>
	<g>
		<path fill="#2A94F4" d="M291.598,168.289c0,29.546-23.95,53.495-53.496,53.495h-12.361v-9.605c0-1.372-0.16-2.733-0.481-4.052    c0.321-1.33,0.481-2.68,0.481-4.053v-14.495c0-1.489-0.192-2.958-0.558-4.395c0.365-1.447,0.558-2.916,0.558-4.406v-14.483    c0-10.218-8.737-19.232-24.582-25.396c-13.775-5.351-31.947-8.299-51.158-8.299c-19.212,0-37.384,2.948-51.148,8.299    c-15.855,6.164-24.593,15.179-24.593,25.396v14.483c0,1.49,0.193,2.959,0.558,4.406c-0.364,1.437-0.558,2.905-0.558,4.395v14.495    c0,1.373,0.16,2.723,0.482,4.053c-0.322,1.318-0.482,2.68-0.482,4.052v9.605H61.898c-29.546,0-53.496-23.949-53.496-53.495    c0-29.547,23.95-53.496,53.496-53.496c0.407,0,0.804,0.01,1.212,0.021c-1.34-4.674-2.048-9.605-2.048-14.709    c0-29.535,23.949-53.495,53.496-53.495c20.98,0,39.13,12.081,47.899,29.653c6.743-3.077,14.248-4.781,22.148-4.781    c26.062,0,47.782,18.643,52.531,43.32c0.321,0,0.643-0.01,0.965-0.01C267.648,114.793,291.598,138.742,291.598,168.289z"/>
	</g>
	<g>
		<g>
			<path opacity="0.6" fill-rule="evenodd" clip-rule="evenodd" fill="#FFBE55" d="M218.768,166.29c0,2.508-0.887,4.945-2.56,7.243     c-0.261,0.348-0.522,0.696-0.817,1.044c-0.418,0.504-0.871,0.993-1.358,1.48c-0.139,0.139-0.278,0.261-0.417,0.399     c-0.14,0.141-0.297,0.261-0.454,0.401c-0.399,0.365-0.817,0.714-1.253,1.062c-0.365,0.296-0.748,0.593-1.132,0.87     c-0.399,0.297-0.8,0.574-1.219,0.854c-0.852,0.573-1.74,1.113-2.681,1.653c0,0-0.017,0-0.017,0.018     c-0.575,0.33-1.185,0.645-1.811,0.975c-0.61,0.313-1.236,0.627-1.881,0.939c-0.818,0.384-1.671,0.767-2.541,1.132     c-0.559,0.227-1.115,0.453-1.69,0.68c-0.591,0.243-1.183,0.47-1.792,0.679c-0.592,0.226-1.22,0.453-1.846,0.662     c-0.626,0.208-1.254,0.417-1.916,0.626c-0.312,0.104-0.644,0.209-0.975,0.296c-0.312,0.104-0.643,0.209-0.991,0.296     c-0.662,0.21-1.341,0.4-2.02,0.575c-1.358,0.383-2.77,0.73-4.213,1.062c-1.341,0.296-2.699,0.593-4.075,0.87     c-0.694,0.139-1.392,0.279-2.089,0.4c-0.715,0.14-1.428,0.262-2.142,0.384c-0.312,0.034-0.609,0.087-0.904,0.139     c-0.314,0.052-0.61,0.104-0.924,0.14c-0.853,0.139-1.705,0.261-2.559,0.365c-0.818,0.104-1.654,0.209-2.507,0.312     c-0.487,0.053-0.992,0.123-1.497,0.157c-1.445,0.175-2.926,0.313-4.422,0.436c-0.104,0.017-0.227,0.017-0.332,0.017     c-1.2,0.105-2.419,0.193-3.655,0.244c-0.19,0.017-0.4,0.017-0.592,0.036c-0.662,0.034-1.341,0.068-2.003,0.104     c-0.191,0-0.382,0.016-0.573,0.016c-0.714,0.035-1.41,0.054-2.124,0.07c-0.784,0.018-1.586,0.053-2.386,0.053     c-0.802,0.018-1.602,0.018-2.402,0.018s-1.602,0-2.402-0.018c-0.8,0-1.602-0.035-2.385-0.053     c-0.715-0.017-1.411-0.035-2.125-0.07c-0.19,0-0.383-0.016-0.573-0.016c-0.663-0.036-1.341-0.07-2.003-0.104     c-0.191-0.02-0.401-0.02-0.593-0.036c-1.235-0.051-2.454-0.139-3.655-0.244c-0.105,0-0.227,0-0.331-0.017     c-1.497-0.122-2.977-0.261-4.423-0.436c-0.504-0.034-0.991-0.104-1.479-0.157c-0.853-0.104-1.689-0.208-2.524-0.312     c-0.854-0.104-1.706-0.227-2.559-0.365c-0.314-0.035-0.61-0.088-0.924-0.14c-0.295-0.052-0.59-0.104-0.905-0.139     c-0.713-0.122-1.427-0.244-2.14-0.384c-0.696-0.121-1.394-0.262-2.09-0.4c-1.376-0.277-2.733-0.574-4.075-0.87     c-1.444-0.331-2.854-0.679-4.212-1.062c-0.679-0.175-1.358-0.365-2.021-0.575c-0.349-0.087-0.68-0.191-0.991-0.296     c-0.331-0.087-0.663-0.191-0.976-0.296c-0.662-0.209-1.289-0.418-1.915-0.626c-0.627-0.209-1.236-0.437-1.846-0.662     c-0.609-0.209-1.201-0.436-1.792-0.679c-0.575-0.227-1.132-0.453-1.69-0.68c-0.87-0.365-1.723-0.748-2.541-1.132     c-0.645-0.312-1.271-0.626-1.881-0.939c-0.626-0.33-1.235-0.645-1.811-0.975c0-0.018-0.018-0.018-0.018-0.018     c-0.939-0.54-1.828-1.08-2.68-1.653c-0.419-0.28-0.819-0.558-1.219-0.854c-0.384-0.277-0.767-0.574-1.132-0.87     c-0.436-0.331-0.854-0.696-1.253-1.062c-0.298-0.261-0.575-0.522-0.854-0.801c-0.522-0.522-1.011-1.027-1.446-1.566     c-0.261-0.314-0.521-0.627-0.747-0.958c-1.672-2.298-2.56-4.735-2.56-7.243c0-14.764,30.779-26.724,68.768-26.724     S218.768,151.526,218.768,166.29z"/>
			<path opacity="0.6" fill-rule="evenodd" clip-rule="evenodd" fill="#FFBE55" d="M93.123,181.298     c-0.957-0.523-1.845-1.08-2.68-1.653C91.294,180.218,92.183,180.758,93.123,181.298z"/>
			<path opacity="0.6" fill-rule="evenodd" clip-rule="evenodd" fill="#FFBE55" d="M209.558,179.645     c-0.835,0.573-1.723,1.13-2.681,1.653C207.818,180.758,208.707,180.218,209.558,179.645z"/>
			<path fill-rule="evenodd" clip-rule="evenodd" fill="#FFBE55" d="M218.768,166.29v14.484c0,1.497-0.312,2.978-0.939,4.406     c-1.776,4.178-6.041,8.025-12.204,11.298c-12.484,6.685-32.747,11.021-55.624,11.021s-43.141-4.336-55.624-11.021     c-6.163-3.272-10.428-7.12-12.204-11.298c-0.627-1.429-0.939-2.909-0.939-4.406V166.29c0,2.508,0.888,4.945,2.56,7.243     c0.226,0.331,0.486,0.644,0.747,0.958c0.436,0.539,0.924,1.044,1.446,1.566c0.278,0.278,0.556,0.54,0.854,0.801     c0.399,0.365,0.817,0.73,1.253,1.062c0.365,0.296,0.748,0.593,1.132,0.87c0.399,0.297,0.8,0.574,1.219,0.854     c0.835,0.573,1.723,1.13,2.68,1.653c0,0,0.018,0,0.018,0.018c0.575,0.33,1.185,0.645,1.811,0.975     c0.61,0.313,1.236,0.627,1.881,0.939c0.818,0.384,1.671,0.767,2.541,1.132c0.559,0.227,1.115,0.453,1.69,0.68     c0.591,0.243,1.183,0.47,1.792,0.679c0.609,0.226,1.219,0.453,1.846,0.662c0.626,0.208,1.253,0.417,1.915,0.626     c0.312,0.104,0.645,0.209,0.976,0.296c0.312,0.104,0.643,0.209,0.991,0.296c0.662,0.21,1.342,0.4,2.021,0.575     c1.357,0.383,2.768,0.73,4.212,1.062c1.342,0.296,2.699,0.593,4.075,0.87c0.696,0.139,1.394,0.279,2.09,0.4     c0.713,0.14,1.427,0.262,2.14,0.384c0.315,0.034,0.61,0.087,0.905,0.139c0.313,0.052,0.609,0.104,0.924,0.14     c0.853,0.139,1.705,0.261,2.559,0.365c0.835,0.104,1.672,0.209,2.524,0.312c0.487,0.053,0.975,0.123,1.479,0.157     c1.446,0.175,2.926,0.313,4.423,0.436c0.104,0.017,0.226,0.017,0.331,0.017c1.201,0.105,2.42,0.193,3.655,0.244     c0.191,0.017,0.401,0.017,0.593,0.036c0.662,0.034,1.34,0.068,2.003,0.104c0.19,0,0.383,0.016,0.573,0.016     c0.714,0.035,1.41,0.054,2.125,0.07c0.783,0.018,1.585,0.053,2.385,0.053c0.801,0.018,1.602,0.018,2.402,0.018     s1.601,0,2.402-0.018c0.8,0,1.602-0.035,2.386-0.053c0.714-0.017,1.41-0.035,2.124-0.07c0.191,0,0.382-0.016,0.573-0.016     c0.662-0.036,1.341-0.07,2.003-0.104c0.191-0.02,0.401-0.02,0.592-0.036c1.236-0.051,2.455-0.139,3.655-0.244     c0.105,0,0.228,0,0.332-0.017c1.496-0.122,2.977-0.261,4.422-0.436c0.505-0.034,1.01-0.104,1.497-0.157     c0.853-0.104,1.688-0.208,2.507-0.312c0.854-0.104,1.706-0.227,2.559-0.365c0.313-0.035,0.609-0.088,0.924-0.14     c0.295-0.052,0.592-0.104,0.904-0.139c0.714-0.122,1.427-0.244,2.142-0.384c0.697-0.121,1.395-0.262,2.089-0.4     c1.376-0.277,2.734-0.574,4.075-0.87c1.443-0.331,2.854-0.679,4.213-1.062c0.679-0.175,1.357-0.365,2.02-0.575     c0.349-0.087,0.68-0.191,0.991-0.296c0.331-0.087,0.663-0.191,0.975-0.296c0.662-0.209,1.29-0.418,1.916-0.626     c0.626-0.209,1.254-0.437,1.846-0.662c0.609-0.209,1.201-0.436,1.792-0.679c0.575-0.227,1.132-0.453,1.69-0.68     c0.87-0.365,1.723-0.748,2.541-1.132c0.645-0.312,1.271-0.626,1.881-0.939c0.626-0.33,1.235-0.645,1.811-0.975     c0-0.018,0.017-0.018,0.017-0.018c0.958-0.523,1.846-1.08,2.681-1.653c0.419-0.28,0.819-0.558,1.219-0.854     c0.384-0.277,0.767-0.574,1.132-0.87c0.436-0.348,0.854-0.696,1.253-1.062c0.157-0.141,0.314-0.261,0.454-0.401     c0.139-0.139,0.278-0.261,0.417-0.399c0.505-0.487,0.958-0.977,1.358-1.48c0.295-0.348,0.574-0.696,0.817-1.044     C217.881,171.235,218.768,168.798,218.768,166.29z"/>
			<path fill-rule="evenodd" clip-rule="evenodd" fill="#FFBE55" d="M93.123,181.298c-0.957-0.523-1.845-1.08-2.68-1.653     C91.294,180.218,92.183,180.758,93.123,181.298z"/>
			<path fill-rule="evenodd" clip-rule="evenodd" fill="#FFBE55" d="M209.558,179.645c-0.835,0.573-1.723,1.13-2.681,1.653     C207.818,180.758,208.707,180.218,209.558,179.645z"/>
			<path opacity="0.6" fill-rule="evenodd" clip-rule="evenodd" fill="#FFBE55" d="M218.768,189.585c0,2.506-0.887,4.943-2.56,7.241     c-1.009,1.411-2.314,2.77-3.882,4.057c-10.968,9.106-34.749,15.407-62.326,15.407c-27.576,0-51.358-6.301-62.326-15.407     c-1.567-1.287-2.874-2.646-3.882-4.057c-1.672-2.298-2.56-4.735-2.56-7.241c0-1.497,0.312-2.978,0.939-4.404     c1.776,4.178,6.041,8.025,12.204,11.298c12.483,6.685,32.747,11.021,55.624,11.021s43.14-4.336,55.624-11.021     c6.163-3.272,10.428-7.12,12.204-11.298C218.456,186.607,218.768,188.088,218.768,189.585z"/>
			<path opacity="0.6" fill-rule="evenodd" clip-rule="evenodd" fill="#FFBE55" d="M93.123,181.298     c-0.957-0.523-1.845-1.08-2.68-1.653C91.294,180.218,92.183,180.758,93.123,181.298z"/>
			<path opacity="0.6" fill-rule="evenodd" clip-rule="evenodd" fill="#FFBE55" d="M209.558,179.645     c-0.835,0.573-1.723,1.13-2.681,1.653C207.818,180.758,208.707,180.218,209.558,179.645z"/>
			<path fill-rule="evenodd" clip-rule="evenodd" fill="#FFBE55" d="M218.768,189.585v14.484c0,1.374-0.262,2.733-0.801,4.057     c0.017,0,0.017,0,0,0.018c-5.031,12.83-33.548,22.649-67.967,22.649s-62.936-9.819-67.967-22.649     c-0.017-0.018-0.017-0.018,0-0.018c-0.54-1.323-0.801-2.683-0.801-4.057v-14.484c0,2.506,0.888,4.943,2.56,7.241     c1.008,1.411,2.314,2.77,3.882,4.057c10.968,9.106,34.75,15.407,62.326,15.407c27.577,0,51.358-6.301,62.326-15.407     c1.567-1.287,2.873-2.646,3.882-4.057C217.881,194.528,218.768,192.091,218.768,189.585z"/>
			<path opacity="0.6" fill-rule="evenodd" clip-rule="evenodd" fill="#FFBE55" d="M218.768,212.182c0,2.507-0.887,4.962-2.56,7.261     c-8.13,11.229-34.696,19.463-66.208,19.463s-58.079-8.234-66.208-19.463c-1.672-2.299-2.56-4.754-2.56-7.261     c0-1.376,0.261-2.732,0.801-4.038c5.031,12.83,33.548,22.649,67.967,22.649s62.936-9.819,67.967-22.649     C218.506,209.449,218.768,210.806,218.768,212.182z"/>
			<path fill-rule="evenodd" clip-rule="evenodd" fill="#FFBE55" d="M218.768,212.182v14.502c0,14.746-30.779,26.706-68.768,26.706     s-68.768-11.96-68.768-26.706v-14.502c0,2.507,0.888,4.962,2.56,7.261c8.129,11.229,34.696,19.463,66.208,19.463     s58.078-8.234,66.208-19.463C217.881,217.144,218.768,214.688,218.768,212.182z"/>
		</g>
		<g>
			<circle fill-rule="evenodd" clip-rule="evenodd" fill="#2A94F4" cx="138.576" cy="200.734" r="3.59"/>
			<circle fill-rule="evenodd" clip-rule="evenodd" fill="#2A94F4" cx="150" cy="200.734" r="3.591"/>
			<circle fill-rule="evenodd" clip-rule="evenodd" fill="#2A94F4" cx="161.426" cy="200.734" r="3.591"/>
		</g>
		<g>
			<circle fill-rule="evenodd" clip-rule="evenodd" fill="#2A94F4" cx="138.576" cy="223.524" r="3.59"/>
			<circle fill-rule="evenodd" clip-rule="evenodd" fill="#2A94F4" cx="150" cy="223.524" r="3.591"/>
			<circle fill-rule="evenodd" clip-rule="evenodd" fill="#2A94F4" cx="161.426" cy="223.524" r="3.591"/>
		</g>
		<g>
			<circle fill-rule="evenodd" clip-rule="evenodd" fill="#2A94F4" cx="138.576" cy="246.313" r="3.59"/>
			<circle fill-rule="evenodd" clip-rule="evenodd" fill="#2A94F4" cx="150" cy="246.313" r="3.591"/>
			<circle fill-rule="evenodd" clip-rule="evenodd" fill="#2A94F4" cx="161.426" cy="246.313" r="3.591"/>
		</g>
	</g>
</g>
</svg>