<svg xmlns="http://www.w3.org/2000/svg" id="Layer_1" data-name="Layer 1" viewBox="0 0 200 200"><defs><style>.cls-1{fill:#2a94f4;}</style></defs><title>Interface</title><path class="cls-1" d="M100,169.77A69.77,69.77,0,1,1,169.77,100,69.85,69.85,0,0,1,100,169.77Zm0-137.54A67.77,67.77,0,1,0,167.77,100,67.84,67.84,0,0,0,100,32.23Z"/><path class="cls-1" d="M115.63,98.1a3.77,3.77,0,1,1,3.77-3.77A3.77,3.77,0,0,1,115.63,98.1Zm0-6.53a2.77,2.77,0,1,0,2.77,2.76A2.77,2.77,0,0,0,115.63,91.57Z"/><path class="cls-1" d="M120.9,92.83a3.77,3.77,0,1,1,3.77-3.76A3.77,3.77,0,0,1,120.9,92.83Zm0-6.53a2.77,2.77,0,1,0,2.77,2.77A2.78,2.78,0,0,0,120.9,86.3Z"/><path class="cls-1" d="M80,102.51H74.15V97.94H69.58V92.13h4.57V87.56H80v4.57h4.57v5.81H80Zm-4.81-1H79V96.94h4.57V93.13H79V88.56H75.15v4.57H70.58v3.81h4.57Z"/><path class="cls-1" d="M100,156.13A56.13,56.13,0,1,1,156.13,100,56.19,56.19,0,0,1,100,156.13Zm0-111.26A55.13,55.13,0,1,0,155.13,100,55.19,55.19,0,0,0,100,44.87ZM128.58,125h-5.2l-10.61-16.92H87.23L76.62,125h-5.2a7.54,7.54,0,0,1-7.53-7.53l1.56-24.64a.72.72,0,0,1,0-.13v-.12a.92.92,0,0,1,0-.16A15.56,15.56,0,0,1,81,76.88,13.24,13.24,0,0,1,89.46,80l1.62-.5A26.09,26.09,0,0,1,98.59,78h2.79a26.11,26.11,0,0,1,7.54,1.45l1.62.5A13.24,13.24,0,0,1,119,76.88a15.57,15.57,0,0,1,15.55,15.55s0,.1,0,.15l-.5.08.5.06s0,.1,0,.16l1.56,24.57A7.55,7.55,0,0,1,128.58,125Zm-4.65-1h4.65a6.54,6.54,0,0,0,6.53-6.53l-1.56-24.57.49-.16-.5,0v-.28A14.57,14.57,0,0,0,119,77.88a12.3,12.3,0,0,0-8.06,3l-.2.15L110.5,81l-1.88-.57A25.15,25.15,0,0,0,101.35,79H98.62a25.07,25.07,0,0,0-7.24,1.41L89.5,81l-.24.07-.21-.15a12.26,12.26,0,0,0-8-3A14.57,14.57,0,0,0,66.45,92.43v.48l-1.56,24.6a6.53,6.53,0,0,0,6.53,6.5h4.65l10.61-16.92h26.64Z"/><path class="cls-1" d="M126.17,98.1a3.77,3.77,0,1,1,3.76-3.77A3.77,3.77,0,0,1,126.17,98.1Zm0-6.53a2.77,2.77,0,1,0,2.76,2.76A2.77,2.77,0,0,0,126.17,91.57Z"/><path class="cls-1" d="M120.9,103.37a3.77,3.77,0,1,1,3.77-3.77A3.77,3.77,0,0,1,120.9,103.37Zm0-6.53a2.77,2.77,0,1,0,2.77,2.76A2.77,2.77,0,0,0,120.9,96.84Z"/></svg>