<svg xmlns="http://www.w3.org/2000/svg" xmlns:xlink="http://www.w3.org/1999/xlink" version="1.1" id="Layer_1" x="0px" y="0px" width="300px" height="300px" viewBox="0 0 300 300" enable-background="new 0 0 300 300" xml:space="preserve">
<g>
	<path fill="#FFBE55" d="M170.773,209.289h-66.796c-5.449,0-9.463-1.282-11.929-3.81c-3.492-3.58-4.125-9.66-4.079-11.557   c0.01-0.209,0.015-0.416,0.015-0.625v-44.531l20.99,20.988c2.48,2.48,5.73,3.721,8.981,3.721s6.5-1.24,8.981-3.721   c4.959-4.959,4.959-13.001,0-17.959l-42.269-42.27c-2.566-2.565-5.955-3.775-9.317-3.688c-3.361-0.088-6.75,1.122-9.316,3.688   l-42.269,42.27c-4.959,4.958-4.959,13,0,17.959c2.481,2.48,5.73,3.721,8.981,3.721c3.251,0,6.5-1.24,8.981-3.721l20.856-20.856   v44.179c-0.089,3.12,0.077,18.373,10.98,29.824c5.12,5.378,14.551,11.788,30.413,11.788h66.796c7.014,0,12.7-5.686,12.7-12.7   S177.788,209.289,170.773,209.289z"/>
	<path fill="#2A94F4" d="M129.227,90.712h66.795c5.449,0,9.463,1.282,11.929,3.81c3.492,3.58,4.125,9.66,4.079,11.557   c-0.01,0.209-0.015,0.416-0.015,0.625v44.531l-20.99-20.988c-2.48-2.48-5.73-3.721-8.981-3.721s-6.5,1.24-8.981,3.721   c-4.959,4.959-4.959,13.001,0,17.96l42.269,42.269c2.566,2.565,5.955,3.775,9.317,3.688c3.361,0.088,6.75-1.122,9.316-3.688   l42.269-42.269c4.959-4.959,4.959-13.001,0-17.96c-2.481-2.48-5.73-3.721-8.981-3.721s-6.5,1.24-8.981,3.721l-20.856,20.856   v-44.179c0.089-3.12-0.077-18.372-10.98-29.824c-5.12-5.378-14.551-11.788-30.413-11.788h-66.795   c-7.015,0-12.701,5.686-12.701,12.7S122.212,90.712,129.227,90.712z"/>
</g>
</svg>