<svg xmlns="http://www.w3.org/2000/svg" xmlns:xlink="http://www.w3.org/1999/xlink" version="1.1" id="Layer_1" x="0px" y="0px" width="300px" height="300px" viewBox="0 0 300 300" enable-background="new 0 0 300 300" xml:space="preserve">
<circle opacity="0.4" fill-rule="evenodd" clip-rule="evenodd" fill="#FFBE55" cx="199.344" cy="150.835" r="23.541"/>
<circle opacity="0.4" fill-rule="evenodd" clip-rule="evenodd" fill="#FFBE55" cx="110" cy="205.651" r="32"/>
<path fill="#2A94F4" d="M288.564,158.174c0,28.901-23.439,52.34-52.34,52.34h-64.601c-0.064-3.599-0.048-7.34,0.016-11.146  c0.144-6.544-3.821-11.131-10.351-11.975c-2.165-0.287-4.331-0.637-6.306-0.971c0.287-0.415,0.59-0.844,0.892-1.258  c0.732-1.02,1.449-2.039,2.15-3.058c0.669-0.955,1.241-1.879,1.783-2.771c0.223-0.35,0.43-0.701,0.652-1.051l0.128-0.19  c0.557,1.131,1.354,2.181,2.373,3.153c0.764,0.748,1.544,1.529,2.372,2.372c1.48,1.529,3.041,3.105,4.841,4.634  c2.484,2.102,5.509,2.404,7.086,2.404c1.863,0,3.63-0.414,5.111-1.21c0.716-0.366,1.369-0.765,2.006-1.178  c0.159,0.701,0.351,1.433,0.574,2.166c1.273,4.044,5.317,7.404,9.395,7.786c1.385,0.127,2.834,0.191,4.665,0.191  c0.717,0,1.434-0.015,2.149-0.015c0.653-0.017,1.306-0.017,1.975-0.017h1.067l0.255,0.017c5.684,0,9.855-3.679,10.652-9.364  c0.047-0.35,0.096-0.716,0.144-1.05c0.334,0.254,0.685,0.494,1.019,0.748c2.038,1.544,4.252,2.325,6.544,2.325  c2.007,0,4.984-0.62,7.756-3.566c0.7-0.732,1.464-1.481,2.292-2.277c1.481-1.448,3.025-2.961,4.507-4.729  c2.706-3.28,3.136-8.742,0.987-12.452c-0.367-0.652-0.766-1.274-1.179-1.879c0.271-0.032,0.525-0.063,0.781-0.095  c5.891-0.764,9.601-5.032,9.457-10.86c-0.063-2.85-0.063-5.844,0-8.901c0.127-5.859-3.566-10.143-9.41-10.891  c-0.351-0.048-0.7-0.095-1.052-0.143c0.064-0.096,0.145-0.191,0.208-0.287c0.493-0.732,0.939-1.465,1.337-2.102  c0.16-0.239,0.318-0.494,0.462-0.749l2.5-3.949l-2.229-4.109l-0.063-0.143c-0.318-0.653-0.892-1.879-2.055-3.074  c-0.477-0.478-0.938-0.971-1.417-1.449c-2.038-2.117-4.155-4.299-6.544-6.353c-1.703-1.497-3.949-2.277-6.48-2.277  c-1.227,0-3.631,0.191-5.907,1.528c-0.511,0.303-1.004,0.621-1.481,0.923c-0.016-0.127-0.031-0.254-0.048-0.398  c-0.653-5.971-4.936-9.84-10.939-9.84h-0.493c-1.226,0.047-2.5,0.063-3.886,0.063c-1.449,0-2.882-0.016-4.315-0.047h-0.35  c-5.939,0-10.19,3.806-10.812,9.697c-0.016,0.24-0.047,0.494-0.079,0.732c-0.287-0.207-0.573-0.43-0.845-0.637  c-2.085-1.607-4.33-2.42-6.655-2.42c-2.007,0-4.968,0.621-7.707,3.551c-1.895,2.022-3.933,4.061-6.21,6.21  c-4.283,4.06-4.697,9.697-1.083,14.394c0.207,0.271,0.414,0.542,0.621,0.812c-0.669,0.143-1.369,0.318-2.069,0.509  c-3.583,1.02-7.628,4.682-8.058,9.475c-0.319,3.598-0.319,7.293,0,10.971c0.43,4.697,4.426,8.343,7.962,9.395  c0.78,0.224,1.528,0.414,2.277,0.573c-0.239,0.319-0.479,0.637-0.717,0.956c-0.59,0.78-1.067,1.607-1.434,2.436  c-0.383-0.812-1.003-2.022-2.165-3.2c-0.638-0.653-1.274-1.322-1.927-1.99c-2.771-2.867-5.653-5.844-8.838-8.599  c-1.815-1.56-4.22-2.389-6.959-2.389c-2.372,0-4.792,0.605-6.64,1.688c-2.133,1.257-3.996,2.643-5.779,4.012  c-0.335-1.91-0.637-3.741-0.844-5.557c-0.717-6.72-5.352-10.891-12.07-10.891c-0.19,0-0.383,0.015-0.589,0.015  c-1.735,0.064-3.52,0.08-5.478,0.08c-1.8,0-3.774-0.016-6.004-0.063c-0.143-0.017-0.271-0.017-0.397-0.017  c-6.656,0-11.21,4.092-11.911,10.685c-0.207,1.943-0.525,3.917-0.907,5.956c-1.943-1.338-3.646-2.548-5.191-3.742  c-2.356-1.799-4.824-2.723-7.356-2.723c-2.165,0-5.382,0.685-8.424,3.949c-2.658,2.834-5.493,5.669-8.678,8.694  c-4.776,4.506-5.223,10.557-1.194,15.796c1.37,1.767,2.628,3.471,3.806,5.127c-2.356,0.35-4.809,0.716-7.356,1.448  c-4.028,1.147-8.472,5.351-8.917,10.431c-0.271,3.009-0.366,6.082-0.303,9.155c-20.317-7.182-34.888-26.56-34.888-49.346  c0-28.916,23.439-52.355,52.355-52.355c0.398,0,0.796,0,1.179,0.015c-1.307-4.569-1.99-9.394-1.99-14.394  c0-28.901,23.438-52.34,52.34-52.34c20.524,0,38.295,11.815,46.878,29.012c6.607-3.009,13.948-4.697,21.672-4.697  c25.509,0,46.767,18.249,51.399,42.404h0.956C265.141,105.819,288.579,129.242,288.564,158.174z"/>
<g>
	<g>
		<g>
			<path fill-rule="evenodd" clip-rule="evenodd" fill="#FFBE55" d="M163.688,199.797c0.049-2.452-0.986-3.583-3.407-3.901     c-3.519-0.446-7.022-1.066-10.494-1.735c-4.983-0.94-6.385-4.077-3.661-8.281c1.688-2.611,3.582-5.111,5.35-7.675     c0.796-1.146,1.496-2.356,2.261-3.566c-0.445-0.812-0.668-1.529-1.131-1.991c-3.375-3.456-6.671-7.006-10.302-10.143     c-0.827-0.732-3.216-0.525-4.363,0.144c-2.914,1.72-5.509,3.98-8.296,5.939c-4.347,3.042-7.643,1.735-8.598-3.423     c-0.622-3.344-1.29-6.704-1.656-10.08c-0.319-2.866-1.735-3.853-4.49-3.774c-3.98,0.127-7.946,0.112-11.927,0.017     c-2.548-0.064-3.917,0.812-4.204,3.551c-0.366,3.375-1.035,6.735-1.656,10.079c-0.986,5.254-4.076,6.624-8.518,3.726     c-2.963-1.942-5.893-3.964-8.694-6.114c-1.943-1.481-3.408-1.481-5.128,0.35c-2.914,3.105-5.924,6.115-9.013,9.028     c-1.814,1.72-1.847,3.233-0.366,5.16c2.261,2.93,4.427,5.907,6.465,8.981c2.691,4.028,1.418,7.181-3.28,8.137     c-3.614,0.732-7.341,0.987-10.876,1.974c-1.321,0.383-3.041,2.199-3.152,3.472c-0.398,4.363-0.382,8.806,0,13.168     c0.111,1.258,1.831,3.025,3.152,3.408c3.248,0.956,6.688,1.226,10.032,1.831c5.557,0.987,6.942,4.076,3.885,8.71     c-1.958,2.961-3.98,5.875-6.113,8.709c-1.354,1.784-1.402,3.169,0.285,4.777c3.185,3.042,6.099,6.37,9.443,9.204     c0.987,0.828,3.424,0.987,4.618,0.366c2.978-1.592,5.604-3.822,8.407-5.765c5.111-3.583,7.882-2.373,8.98,3.917     c0.558,3.216,0.812,6.512,1.783,9.601c0.415,1.322,2.214,2.978,3.503,3.089c4.22,0.398,8.503,0.096,12.755,0.191     c2.452,0.048,3.631-1.035,3.948-3.423c0.494-3.52,1.052-7.022,1.721-10.494c0.987-5.048,4.028-6.354,8.296-3.551     c3.073,2.022,6.099,4.14,9.06,6.353c1.959,1.465,3.472,1.307,5.16-0.461c2.914-3.089,6.178-5.891,8.885-9.156     c0.828-1.003,0.987-3.502,0.318-4.665c-1.896-3.297-4.49-6.194-6.608-9.379c-2.516-3.774-1.193-6.927,3.249-7.866     c3.598-0.749,7.244-1.385,10.891-1.848c2.389-0.318,3.551-1.305,3.487-3.821C163.593,208.316,163.593,204.049,163.688,199.797z      M108.833,232.727c-14.649-0.08-26.353-11.878-26.369-26.592c-0.016-14.888,11.863-26.75,26.688-26.671     c14.602,0.096,26.449,11.99,26.465,26.593C135.648,220.8,123.595,232.806,108.833,232.727z"/>
			<path fill-rule="evenodd" clip-rule="evenodd" fill="#FFBE55" d="M126.826,206.405c-0.271,9.554-8.407,17.563-17.85,17.563     c-9.873,0-17.993-8.408-17.754-18.392c0.223-9.505,8.519-17.499,17.961-17.355C118.801,188.364,127.097,196.931,126.826,206.405z     "/>
		</g>
	</g>
	<g>
		<g>
			<path fill-rule="evenodd" clip-rule="evenodd" fill="#FFBE55" d="M239.468,146.741c0.032-1.784-0.717-2.612-2.484-2.834     c-2.548-0.334-5.079-0.78-7.611-1.258c-3.615-0.684-4.617-2.962-2.659-6.003c1.227-1.911,2.611-3.71,3.885-5.574     c0.574-0.843,1.083-1.703,1.641-2.579c-0.318-0.606-0.478-1.115-0.812-1.465c-2.452-2.5-4.84-5.08-7.483-7.356     c-0.589-0.525-2.324-0.366-3.152,0.112c-2.118,1.241-3.997,2.882-6.02,4.299c-3.168,2.212-5.541,1.257-6.242-2.484     c-0.462-2.42-0.938-4.841-1.209-7.293c-0.224-2.103-1.259-2.803-3.249-2.739c-2.882,0.096-5.764,0.064-8.646,0     c-1.848-0.032-2.851,0.59-3.057,2.58c-0.256,2.452-0.749,4.873-1.194,7.308c-0.717,3.823-2.962,4.809-6.179,2.708     c-2.149-1.417-4.283-2.866-6.321-4.442c-1.401-1.067-2.468-1.067-3.711,0.255c-2.117,2.261-4.299,4.443-6.544,6.56     c-1.306,1.243-1.337,2.341-0.255,3.742c1.624,2.118,3.201,4.283,4.682,6.513c1.958,2.93,1.035,5.207-2.372,5.907     c-2.627,0.526-5.335,0.701-7.883,1.433c-0.971,0.271-2.213,1.576-2.293,2.516c-0.286,3.168-0.286,6.385,0,9.554     c0.08,0.907,1.322,2.181,2.277,2.468c2.357,0.7,4.856,0.892,7.276,1.321c4.029,0.717,5.048,2.962,2.819,6.322     c-1.418,2.149-2.883,4.267-4.427,6.321c-0.987,1.29-1.02,2.293,0.207,3.472c2.308,2.197,4.411,4.617,6.847,6.671     c0.717,0.605,2.483,0.716,3.344,0.255c2.165-1.147,4.077-2.771,6.099-4.172c3.726-2.595,5.732-1.72,6.513,2.834     c0.414,2.342,0.604,4.73,1.306,6.975c0.303,0.955,1.593,2.149,2.531,2.245c3.074,0.287,6.179,0.063,9.268,0.128     c1.769,0.032,2.627-0.749,2.866-2.484c0.351-2.548,0.748-5.079,1.242-7.611c0.717-3.663,2.914-4.603,6.004-2.58     c2.244,1.464,4.441,3.009,6.575,4.617c1.418,1.067,2.516,0.956,3.742-0.334c2.118-2.246,4.49-4.283,6.449-6.64     c0.605-0.732,0.716-2.547,0.239-3.392c-1.386-2.388-3.265-4.491-4.809-6.799c-1.816-2.739-0.86-5.032,2.371-5.701     c2.612-0.557,5.256-1.002,7.898-1.354c1.736-0.223,2.564-0.939,2.532-2.771C239.388,152.919,239.388,149.813,239.468,146.741z      M199.66,170.626c-10.622-0.064-19.108-8.631-19.125-19.299c-0.015-10.797,8.615-19.411,19.363-19.347     c10.589,0.063,19.188,8.694,19.203,19.283C219.117,161.963,210.376,170.673,199.66,170.626z"/>
			<path fill-rule="evenodd" clip-rule="evenodd" fill="#FFBE55" d="M212.716,151.534c-0.19,6.927-6.099,12.723-12.945,12.723     c-7.165,0-13.041-6.083-12.882-13.344c0.176-6.879,6.179-12.691,13.042-12.58C206.904,138.445,212.908,144.655,212.716,151.534z"/>
		</g>
	</g>
</g>
</svg>